{"title":"Blood Moon/Wolf Girl (2001)","uid":10514631,"size":867374511,"categoryP":"video","categoryS":"movies","magnet":"?xt=urn:btih:7ed9a8b51e09e58a30dcd92cb059a21e303b494c&amp;dn=Blood+Moon%2FWolf+Girl+%282001%29+&amp;tr=udp%3A%2F%2Ftracker.openbittorrent.com%3A80&amp;tr=udp%3A%2F%2Fopen.demonii.com%3A1337&amp;tr=udp%3A%2F%2Ftracker.coppersurfer.tk%3A6969&amp;tr=udp%3A%2F%2Fexodus.desync.com%3A6969","seeders":1,"leechers":0,"uploader":"qtwigg","files":-1,"time":1404898623,"description":"Wolf Girl (alternate title Blood Moon) is a 2001 Canadian/American horror thriller about a girl who travels with a freak show because of her rare genetic disorder called hypertrichosis. Teenage girl Tara has a disease and hair growing all over her body and her face. She was born into a travelling Freak show circus and is the main attraction as Wolf Girl. Tara, often ridiculed by local teens, finds a friend in Ryan whose mother happens to work on an experimental depilatory treatment. Desperately longing to be normal, Tara starts to secretly inject herself with the drug, but unaware of the dangerous side effects... The animal within starts to reveal itself.\n\nVIDEO\nID                                       : 1\nFormat                                   : AVC\nFormat/Info                              : Advanced Video Codec\nFormat profile                           : &lt;a class=&quot;__cf_email__&quot; href=&quot;/cdn-cgi/l/email-protection&quot; data-cfemail=&quot;c189a8a6a9818df5eff0&quot;&gt;[email&amp;#160;protected]&lt;/a&gt;&lt;script cf-hash='f9e31' type=&quot;text/javascript&quot;&gt;\n/* &lt;![CDATA[ */!function(){try{var t=&quot;currentScript&quot;in document?document.currentScript:function(){for(var t=document.getElementsByTagName(&quot;script&quot;),e=t.length;e--;)if(t[e].getAttribute(&quot;cf-hash&quot;))return t[e]}();if(t&amp;&amp;t.previousSibling){var e,r,n,i,c=t.previousSibling,a=c.getAttribute(&quot;data-cfemail&quot;);if(a){for(e=&quot;&quot;,r=parseInt(a.substr(0,2),16),n=2;a.length-n;n+=2)i=parseInt(a.substr(n,2),16)^r,e+=String.fromCharCode(i);e=document.createTextNode(e),c.parentNode.replaceChild(e,c)}}}catch(u){}}();/* ]]&gt; */&lt;/script&gt;\nFormat settings, CABAC                   : Yes\nFormat settings, ReFrames                : 10 frames\nCodec ID                                 : avc1\nCodec ID/Info                            : Advanced Video Coding\nDuration                                 : 1h 37mn\nBit rate                                 : 737 Kbps\nWidth                                    : 720 pixels\nHeight                                   : 480 pixels\nDisplay aspect ratio                     : 3:2\nFrame rate mode                          : Variable\nFrame rate                               : 23.976 fps\nMinimum frame rate                       : 23.974 fps\nMaximum frame rate                       : 90 000.000 fps\nStandard                                 : NTSC\nColor space                              : YUV\nChroma subsampling                       : 4:2:0\nBit depth                                : 8 bits\nScan type                                : Progressive\nBits/(Pixel*Frame)                       : 0.089\nStream size                              : 513 MiB (62%)\nWriting library                          : x264 core 130 r2273 b3065e6\n\nAUDIO\nID                                       : 2\nFormat                                   : AC-3\nFormat/Info                              : Audio Coding 3\nMode extension                           : CM (complete main)\nFormat settings, Endianness              : Big\nCodec ID                                 : ac-3\nDuration                                 : 1h 37mn\nBit rate mode                            : Constant\nBit rate                                 : 448 Kbps\nChannel(s)                               : 6 channels\nChannel positions                        : Front: L C R, Side: L R, LFE\nSampling rate                            : 48.0 KHz\nBit depth                                : 16 bits\nCompression mode                         : Lossy\nStream size                              : 312 MiB (38%)\nLanguage                                 : English","torrent":{"xt":"urn:btih:7ed9a8b51e09e58a30dcd92cb059a21e303b494c","amp;dn":"Blood+Moon%2FWolf+Girl+%282001%29+","amp;tr":["udp%3A%2F%2Ftracker.openbittorrent.com%3A80","udp%3A%2F%2Fopen.demonii.com%3A1337","udp%3A%2F%2Ftracker.coppersurfer.tk%3A6969","udp%3A%2F%2Fexodus.desync.com%3A6969"],"infoHash":"7ed9a8b51e09e58a30dcd92cb059a21e303b494c","infoHashBuffer":{"type":"Buffer","data":[126,217,168,181,30,9,229,138,48,220,217,44,176,89,162,30,48,59,73,76]},"announce":[],"urlList":[]}}